<?xml version="1.0" encoding="UTF-8" standalone="no"?>
<!-- Created with Inkscape (http://www.inkscape.org/) -->

<svg
   xmlns:dc="http://purl.org/dc/elements/1.1/"
   xmlns:cc="http://creativecommons.org/ns#"
   xmlns:rdf="http://www.w3.org/1999/02/22-rdf-syntax-ns#"
   xmlns:svg="http://www.w3.org/2000/svg"
   xmlns="http://www.w3.org/2000/svg"
   xmlns:sodipodi="http://sodipodi.sourceforge.net/DTD/sodipodi-0.dtd"
   xmlns:inkscape="http://www.inkscape.org/namespaces/inkscape"
   width="571.3197"
   height="91.532936"
   viewBox="0 0 151.16166 24.21809"
   version="1.1"
   id="svg8"
   inkscape:version="0.92.4 (5da689c313, 2019-01-14)"
   sodipodi:docname="Yunnet-dark.svg">
  <defs
     id="defs2">
    <marker
       inkscape:isstock="true"
       inkscape:stockid="DistanceStart"
       orient="auto"
       refY="0"
       refX="0"
       id="marker6671"
       style="overflow:visible">
      <g
         style="fill:#0b2817;fill-opacity:1;stroke:#0b2817;stroke-opacity:1"
         id="g6669">
        <path
           id="path6663"
           d="M 0,0 H 2"
           style="fill:#0b2817;fill-opacity:1;stroke:#0b2817;stroke-width:1.14999998;stroke-linecap:square;stroke-opacity:1"
           inkscape:connector-curvature="0" />
        <path
           id="path6665"
           d="M 0,0 13,4 9,0 13,-4 Z"
           style="fill:#0b2817;fill-opacity:1;fill-rule:evenodd;stroke:#0b2817;stroke-opacity:1"
           inkscape:connector-curvature="0" />
        <path
           id="path6667"
           d="M 0,-4 V 40"
           style="fill:#0b2817;fill-opacity:1;stroke:#0b2817;stroke-width:1;stroke-linecap:square;stroke-opacity:1"
           inkscape:connector-curvature="0" />
      </g>
    </marker>
    <marker
       inkscape:isstock="true"
       inkscape:stockid="DistanceStart"
       orient="auto"
       refY="0"
       refX="0"
       id="marker6331"
       style="overflow:visible">
      <g
         style="fill:#2ca05a;fill-opacity:1;stroke:#2ca05a;stroke-opacity:1"
         id="g6329">
        <path
           id="path6323"
           d="M 0,0 H 2"
           style="fill:#2ca05a;fill-opacity:1;stroke:#2ca05a;stroke-width:1.14999998;stroke-linecap:square;stroke-opacity:1"
           inkscape:connector-curvature="0" />
        <path
           id="path6325"
           d="M 0,0 13,4 9,0 13,-4 Z"
           style="fill:#2ca05a;fill-opacity:1;fill-rule:evenodd;stroke:#2ca05a;stroke-opacity:1"
           inkscape:connector-curvature="0" />
        <path
           id="path6327"
           d="M 0,-4 V 40"
           style="fill:#2ca05a;fill-opacity:1;stroke:#2ca05a;stroke-width:1;stroke-linecap:square;stroke-opacity:1"
           inkscape:connector-curvature="0" />
      </g>
    </marker>
    <marker
       inkscape:isstock="true"
       style="overflow:visible"
       id="marker6109"
       refX="0"
       refY="0"
       orient="auto"
       inkscape:stockid="Arrow1Lstart">
      <path
         transform="matrix(0.8,0,0,0.8,10,0)"
         style="fill:#0b2817;fill-opacity:1;fill-rule:evenodd;stroke:#0b2817;stroke-width:1.00000003pt;stroke-opacity:1"
         d="M 0,0 5,-5 -12.5,0 5,5 Z"
         id="path6107"
         inkscape:connector-curvature="0" />
    </marker>
    <marker
       inkscape:isstock="true"
       style="overflow:visible"
       id="marker6099"
       refX="0"
       refY="0"
       orient="auto"
       inkscape:stockid="Arrow1Lstart">
      <path
         transform="matrix(0.8,0,0,0.8,10,0)"
         style="fill:#2ca05a;fill-opacity:1;fill-rule:evenodd;stroke:#2ca05a;stroke-width:1.00000003pt;stroke-opacity:1"
         d="M 0,0 5,-5 -12.5,0 5,5 Z"
         id="path6097"
         inkscape:connector-curvature="0" />
    </marker>
    <marker
       inkscape:stockid="Arrow1Lstart"
       orient="auto"
       refY="0"
       refX="0"
       id="marker6029"
       style="overflow:visible"
       inkscape:isstock="true">
      <path
         id="path6027"
         d="M 0,0 5,-5 -12.5,0 5,5 Z"
         style="fill:#2ca05a;fill-opacity:1;fill-rule:evenodd;stroke:#2ca05a;stroke-width:1.00000003pt;stroke-opacity:1"
         transform="matrix(0.8,0,0,0.8,10,0)"
         inkscape:connector-curvature="0" />
    </marker>
    <marker
       inkscape:stockid="Arrow1Lstart"
       orient="auto"
       refY="0"
       refX="0"
       id="marker5959"
       style="overflow:visible"
       inkscape:isstock="true">
      <path
         id="path5957"
         d="M 0,0 5,-5 -12.5,0 5,5 Z"
         style="fill:#2ca05a;fill-opacity:1;fill-rule:evenodd;stroke:#2ca05a;stroke-width:1.00000003pt;stroke-opacity:1"
         transform="matrix(0.8,0,0,0.8,10,0)"
         inkscape:connector-curvature="0" />
    </marker>
    <marker
       inkscape:stockid="Arrow1Lstart"
       orient="auto"
       refY="0"
       refX="0"
       id="marker5663"
       style="overflow:visible"
       inkscape:isstock="true">
      <path
         id="path5661"
         d="M 0,0 5,-5 -12.5,0 5,5 Z"
         style="fill:#2ca05a;fill-opacity:1;fill-rule:evenodd;stroke:#2ca05a;stroke-width:1.00000003pt;stroke-opacity:1"
         transform="matrix(0.8,0,0,0.8,10,0)"
         inkscape:connector-curvature="0" />
    </marker>
    <marker
       inkscape:isstock="true"
       style="overflow:visible"
       id="marker5337"
       refX="0"
       refY="0"
       orient="auto"
       inkscape:stockid="Arrow1Lstart">
      <path
         transform="matrix(0.8,0,0,0.8,10,0)"
         style="fill:#2ca05a;fill-opacity:1;fill-rule:evenodd;stroke:#2ca05a;stroke-width:1.00000003pt;stroke-opacity:1"
         d="M 0,0 5,-5 -12.5,0 5,5 Z"
         id="path5335"
         inkscape:connector-curvature="0" />
    </marker>
    <marker
       inkscape:isstock="true"
       style="overflow:visible"
       id="marker5289"
       refX="0"
       refY="0"
       orient="auto"
       inkscape:stockid="Arrow1Lstart">
      <path
         transform="matrix(0.8,0,0,0.8,10,0)"
         style="fill:#2ca05a;fill-opacity:1;fill-rule:evenodd;stroke:#2ca05a;stroke-width:1.00000003pt;stroke-opacity:1"
         d="M 0,0 5,-5 -12.5,0 5,5 Z"
         id="path5287"
         inkscape:connector-curvature="0" />
    </marker>
    <marker
       inkscape:isstock="true"
       style="overflow:visible"
       id="marker5233"
       refX="0"
       refY="0"
       orient="auto"
       inkscape:stockid="Arrow1Lstart">
      <path
         transform="matrix(0.8,0,0,0.8,10,0)"
         style="fill:#2ca05a;fill-opacity:1;fill-rule:evenodd;stroke:#2ca05a;stroke-width:1.00000003pt;stroke-opacity:1"
         d="M 0,0 5,-5 -12.5,0 5,5 Z"
         id="path5231"
         inkscape:connector-curvature="0" />
    </marker>
    <inkscape:perspective
       sodipodi:type="inkscape:persp3d"
       inkscape:vp_x="0 : 67.733335 : 1"
       inkscape:vp_y="0 : 1000 : 0"
       inkscape:vp_z="135.46666 : 67.733335 : 1"
       inkscape:persp3d-origin="67.733328 : 45.155557 : 1"
       id="perspective4586" />
  </defs>
  <sodipodi:namedview
     id="base"
     pagecolor="#ffffff"
     bordercolor="#666666"
     borderopacity="1.0"
     inkscape:pageopacity="0.0"
     inkscape:pageshadow="2"
     inkscape:zoom="1"
     inkscape:cx="224.14679"
     inkscape:cy="118.35344"
     inkscape:document-units="mm"
     inkscape:current-layer="layer1"
     showgrid="false"
     units="px"
     inkscape:window-width="1920"
     inkscape:window-height="1017"
     inkscape:window-x="1358"
     inkscape:window-y="-8"
     inkscape:window-maximized="1"
     showguides="true"
     inkscape:guide-bbox="true"
     fit-margin-top="0"
     fit-margin-left="0"
     fit-margin-right="0"
     fit-margin-bottom="0">
    <sodipodi:guide
       position="-4.2071588,-9.5708901"
       orientation="0,600"
       id="guide1240"
       inkscape:locked="false" />
    <sodipodi:guide
       position="154.54284,-9.5708901"
       orientation="-300,0"
       id="guide1242"
       inkscape:locked="false" />
    <sodipodi:guide
       position="154.54284,69.804108"
       orientation="0,-600"
       id="guide1244"
       inkscape:locked="false" />
    <sodipodi:guide
       position="-4.2071588,69.804108"
       orientation="300,0"
       id="guide1246"
       inkscape:locked="false" />
    <sodipodi:guide
       position="75.167839,30.116609"
       orientation="0,1"
       id="guide1250"
       inkscape:locked="false"
       inkscape:label=""
       inkscape:color="rgb(0,0,255)" />
  </sodipodi:namedview>
  <metadata
     id="metadata5">
    <rdf:RDF>
      <cc:Work
         rdf:about="">
        <dc:format>image/svg+xml</dc:format>
        <dc:type
           rdf:resource="http://purl.org/dc/dcmitype/StillImage" />
        <dc:title></dc:title>
      </cc:Work>
    </rdf:RDF>
  </metadata>
  <g
     inkscape:label="Layer 1"
     inkscape:groupmode="layer"
     id="layer1"
     transform="translate(-4.2071589,-263.21101)">
    <g
       aria-label="NET"
       style="font-style:normal;font-weight:normal;font-size:10.58333302px;line-height:1.25;font-family:sans-serif;letter-spacing:0px;word-spacing:0px;fill:#2ca05a;fill-opacity:1;stroke:none;stroke-width:0.26458332"
       id="text1111">
      <path
         d="m 107.22551,287.28636 q -0.4826,0 -0.8128,-0.3302 -0.3302,-0.3302 -0.3302,-0.8128 v -15.1638 q 0,-0.6858 0.4826,-1.1684 0.4826,-0.508 1.1684,-0.508 h 0.3302 q 0.8128,0 1.397,0.762 l 9.779,14.1224 v -13.716 q 0,-0.4826 0.3302,-0.8128 0.3302,-0.3556 0.8128,-0.3556 0.4826,0 0.8128,0.3556 0.3556,0.3302 0.3556,0.8128 v 15.1638 q 0,0.6858 -0.508,1.1684 -0.4826,0.4826 -1.1684,0.4826 h -0.3048 q -0.4064,0 -0.762,-0.1778 -0.3556,-0.2032 -0.5842,-0.508 l -9.8298,-14.1986 v 13.7414 q 0,0.4826 -0.3556,0.8128 -0.3302,0.3302 -0.8128,0.3302 z"
         style="font-style:normal;font-variant:normal;font-weight:normal;font-stretch:normal;font-size:25.39999962px;font-family:'Varela Round';-inkscape-font-specification:'Varela Round';fill:#2ca05a;fill-opacity:1;stroke-width:0.26458332"
         id="path1361"
         inkscape:connector-curvature="0" />
      <path
         d="m 127.61497,287.15936 q -0.4826,0 -0.8128,-0.3302 -0.3302,-0.3302 -0.3302,-0.8128 v -15.4178 q 0,-0.4826 0.3302,-0.8128 0.3302,-0.3556 0.8128,-0.3556 h 10.1854 q 0.4572,0 0.762,0.3302 0.3302,0.3048 0.3302,0.762 0,0.4572 -0.3302,0.762 -0.3048,0.3048 -0.762,0.3048 h -9.017 v 5.6134 h 8.1026 q 0.4572,0 0.762,0.3302 0.3302,0.3048 0.3302,0.762 0,0.4572 -0.3302,0.762 -0.3048,0.3048 -0.762,0.3048 h -8.1026 v 5.6388 h 9.017 q 0.4572,0 0.762,0.3302 0.3302,0.3048 0.3302,0.762 0,0.4572 -0.3302,0.762 -0.3048,0.3048 -0.762,0.3048 z"
         style="font-style:normal;font-variant:normal;font-weight:normal;font-stretch:normal;font-size:25.39999962px;font-family:'Varela Round';-inkscape-font-specification:'Varela Round';fill:#2ca05a;fill-opacity:1;stroke-width:0.26458332"
         id="path1363"
         inkscape:connector-curvature="0" />
      <path
         d="m 147.95203,287.28636 q -0.4826,0 -0.8128,-0.3302 -0.3302,-0.3302 -0.3302,-0.8128 v -14.5542 h -5.1816 q -0.4572,0 -0.762,-0.3048 -0.3048,-0.3048 -0.3048,-0.762 0,-0.4572 0.3048,-0.762 0.3048,-0.3302 0.762,-0.3302 h 12.6492 q 0.4572,0 0.762,0.3302 0.3302,0.3048 0.3302,0.762 0,0.4572 -0.3302,0.762 -0.3048,0.3048 -0.762,0.3048 h -5.1562 v 14.5542 q 0,0.4826 -0.3556,0.8128 -0.3302,0.3302 -0.8128,0.3302 z"
         style="font-style:normal;font-variant:normal;font-weight:normal;font-stretch:normal;font-size:25.39999962px;font-family:'Varela Round';-inkscape-font-specification:'Varela Round';fill:#2ca05a;fill-opacity:1;stroke-width:0.26458332"
         id="path1365"
         inkscape:connector-curvature="0" />
    </g>
    <g
       aria-label="YUN"
       transform="matrix(0.26458333,0,0,0.26458333,29.991329,209.53831)"
       style="font-style:normal;font-weight:normal;font-size:40px;line-height:1.25;font-family:sans-serif;letter-spacing:0px;word-spacing:0px;fill:#d7f4e3;fill-opacity:1;stroke:none"
       id="flowRoot10-3">
      <path
         d="m 97.862578,293.91039 q -1.824,0 -3.168,-1.248 -1.248,-1.248 -1.248,-3.072 v -24.48 l -22.944,-32.16 q -0.768,-1.248 -0.768,-2.592 0,-1.824 1.152,-3.072 1.248,-1.344 3.072,-1.344 2.4,0 3.84,2.208 l 20.064,29.184 20.064002,-29.184 q 1.44,-2.208 3.84,-2.208 1.824,0 3.072,1.344 1.248,1.248 1.152,3.072 0,1.344 -0.768,2.592 l -23.04,32.16 v 24.48 q 0,1.824 -1.248,3.072 -1.248002,1.248 -3.072002,1.248 z"
         style="fill:#d7f4e3;fill-opacity:1"
         id="path1368"
         inkscape:connector-curvature="0" />
      <path
         d="m 164.83908,294.39039 q -6.816,0 -13.152,-2.88 -6.336,-2.88 -10.368,-8.736 -4.032,-5.952 -4.032,-14.496 v -37.92 q 0,-1.824 1.248,-3.072 1.248,-1.344 3.072,-1.344 1.824,0 3.072,1.344 1.344,1.248 1.344,3.072 v 38.208 q 0,5.76 2.592,9.792 2.688,4.032 7.008,6.048 4.32,2.016 9.216,2.016 4.896,0 9.216,-2.016 4.32,-2.016 6.912,-6.048 2.688,-4.032 2.688,-9.792 v -38.208 q 0,-1.824 1.248,-3.072 1.248,-1.344 3.072,-1.344 1.824,0 3.072,1.344 1.344,1.248 1.344,3.072 v 37.92 q 0,8.544 -4.032,14.496 -4.032,5.856 -10.368,8.736 -6.336,2.88 -13.152,2.88 z"
         style="fill:#d7f4e3;fill-opacity:1"
         id="path1370"
         inkscape:connector-curvature="0" />
      <path
         d="m 214.83708,293.91039 q -1.824,0 -3.072,-1.248 -1.248,-1.248 -1.248,-3.072 v -57.312 q 0,-2.592 1.824,-4.416 1.824,-1.92 4.416,-1.92 h 1.248 q 3.072,0 5.28,2.88 l 36.96,53.376 v -51.84 q 0,-1.824 1.248,-3.072 1.248,-1.344 3.072,-1.344 1.824,0 3.072,1.344 1.344,1.248 1.344,3.072 v 57.312 q 0,2.592 -1.92,4.416 -1.824,1.824 -4.416,1.824 h -1.152 q -1.536,0 -2.88,-0.672 -1.344,-0.768 -2.208,-1.92 l -37.152,-53.664 v 51.936 q 0,1.824 -1.344,3.072 -1.248,1.248 -3.072,1.248 z"
         style="fill:#d7f4e3;fill-opacity:1"
         id="path1372"
         inkscape:connector-curvature="0" />
    </g>
    <path
       style="fill:#2ca05a;fill-opacity:1;stroke:#2ca05a;stroke-width:2;stroke-linejoin:round;stroke-miterlimit:4;stroke-dasharray:none;stroke-opacity:1"
       d="m 33.657065,271.21579 -2.644278,4.5806 -6.056481,10.48981 h 7.005261 l 5.739688,-9.94204 5.74022,9.94204 h 7.004741 l -6.055961,-10.48981 -2.644798,-4.5806 z"
       id="path4560-16-8-8-0-4-0-8-6-2-1-6"
       inkscape:connector-curvature="0" />
    <path
       style="fill:#37c871;fill-opacity:1;stroke:#37c871;stroke-width:2;stroke-linejoin:round;stroke-miterlimit:4;stroke-dasharray:none;stroke-opacity:1"
       d="m 26.651816,271.21579 -1.69603,2.93729 v 0.001 l -0.94826,1.64226 -6.05648,10.4898 h 7.00474 5.3e-4 l 5.739699,-9.94203 0.94878,-1.64331 2.01177,-3.48506 z"
       id="path4805-2-9-6-5-3-4-0-2"
       inkscape:connector-curvature="0" />
    <path
       style="fill:#87deaa;fill-opacity:1;stroke:#87deaa;stroke-width:2;stroke-linejoin:round;stroke-miterlimit:4;stroke-dasharray:none;stroke-opacity:1"
       d="m 5.2070857,264.21101 5.7412603,9.94305 h -0.001 l 2.01176,3.48507 0.94878,1.6433 0.541569,0.93794 -3.502109,6.06578 h 7.003699 l 5.29e-4,10e-4 5.29e-4,-10e-4 h 10e-4 l 5.739699,-9.94204 0.94878,-1.6433 2.01176,-3.48507 4.04368,-7.00473 h -7.004758 l -5.74022,9.94202 -5.73918,-9.94202 z"
       id="path4560-16-8-8-0-4-0-8-6-2-3-8-9"
       inkscape:connector-curvature="0" />
  </g>
</svg>
